<?xml version="1.0" encoding="UTF-8" standalone="no"?>
<!DOCTYPE svg PUBLIC "-//W3C//DTD SVG 1.1//EN"
 "http://www.w3.org/Graphics/SVG/1.1/DTD/svg11.dtd">
<!-- Generated by graphviz version 2.40.1 (20161225.0304)
 -->
<!-- Title: %3 Pages: 1 -->
<svg width="209pt" height="207pt"
 viewBox="0.00 0.00 209.36 207.00" xmlns="http://www.w3.org/2000/svg" xmlns:xlink="http://www.w3.org/1999/xlink">
<g id="graph0" class="graph" transform="scale(1 1) rotate(0) translate(4 203)">
<title>%3</title>
<polygon fill="#ffffff" stroke="transparent" points="-4,4 -4,-203 205.3618,-203 205.3618,4 -4,4"/>
<g id="clust1" class="cluster">
<title>clusterorigin</title>
<polygon fill="none" stroke="#000000" points="45.3618,-116 45.3618,-191 129.3618,-191 129.3618,-116 45.3618,-116"/>
<text text-anchor="middle" x="87.3618" y="-175.8" font-family="Times,serif" font-size="14.00" fill="#000000">origin</text>
</g>
<g id="clust2" class="cluster">
<title>clusterlocal</title>
<polygon fill="none" stroke="#000000" points="45.3618,-8 45.3618,-83 129.3618,-83 129.3618,-8 45.3618,-8"/>
<text text-anchor="middle" x="87.3618" y="-67.8" font-family="Times,serif" font-size="14.00" fill="#000000">local</text>
</g>
<!-- omaster -->
<g id="node1" class="node">
<title>omaster</title>
<path fill="#da70d6" stroke="#da70d6" d="M108.8618,-160C108.8618,-160 65.8618,-160 65.8618,-160 59.8618,-160 53.8618,-154 53.8618,-148 53.8618,-148 53.8618,-136 53.8618,-136 53.8618,-130 59.8618,-124 65.8618,-124 65.8618,-124 108.8618,-124 108.8618,-124 114.8618,-124 120.8618,-130 120.8618,-136 120.8618,-136 120.8618,-148 120.8618,-148 120.8618,-154 114.8618,-160 108.8618,-160"/>
<text text-anchor="middle" x="87.3618" y="-138.3" font-family="Times,serif" font-size="14.00" fill="#000000">master</text>
</g>
<!-- master -->
<g id="node2" class="node">
<title>master</title>
<path fill="#da70d6" stroke="#da70d6" d="M108.8618,-52C108.8618,-52 65.8618,-52 65.8618,-52 59.8618,-52 53.8618,-46 53.8618,-40 53.8618,-40 53.8618,-28 53.8618,-28 53.8618,-22 59.8618,-16 65.8618,-16 65.8618,-16 108.8618,-16 108.8618,-16 114.8618,-16 120.8618,-22 120.8618,-28 120.8618,-28 120.8618,-40 120.8618,-40 120.8618,-46 114.8618,-52 108.8618,-52"/>
<text text-anchor="middle" x="87.3618" y="-30.3" font-family="Times,serif" font-size="14.00" fill="#000000">master</text>
</g>
<!-- omaster&#45;&gt;master -->
<g id="edge1" class="edge">
<title>omaster&#45;&gt;master</title>
<path fill="none" stroke="#000000" stroke-dasharray="1,5" d="M53.7128,-136.493C35.8191,-131.6672 15.3065,-122.6769 4.3618,-106 -10.6366,-83.1461 17.1635,-63.3175 44.5473,-50.2882"/>
<polygon fill="#000000" stroke="#000000" points="46.0784,-53.4373 53.7556,-46.1358 43.2008,-47.0561 46.0784,-53.4373"/>
<text text-anchor="middle" x="34.8618" y="-94.8" font-family="Times,serif" font-size="14.00" fill="#000000">git fetch</text>
</g>
<!-- omaster&#45;&gt;master -->
<g id="edge3" class="edge">
<title>omaster&#45;&gt;master</title>
<path fill="none" stroke="#000000" d="M85.5409,-123.7043C85.0565,-118.0358 84.6016,-111.7649 84.3618,-106 83.7587,-91.5009 84.3181,-75.3595 85.1102,-62.0407"/>
<polygon fill="#000000" stroke="#000000" points="88.6032,-62.2607 85.7777,-52.0496 81.6188,-61.794 88.6032,-62.2607"/>
<text text-anchor="middle" x="110.3618" y="-94.8" font-family="Times,serif" font-size="14.00" fill="#000000">git pull</text>
</g>
<!-- master&#45;&gt;omaster -->
<g id="edge2" class="edge">
<title>master&#45;&gt;omaster</title>
<path fill="none" stroke="#000000" d="M111.0433,-52.1404C122.2128,-62.2168 134.3804,-75.783 140.3618,-91 142.8007,-97.2045 143.4821,-100.1086 140.3618,-106 137.5603,-111.2896 133.5947,-115.9462 129.0782,-120.002"/>
<polygon fill="#000000" stroke="#000000" points="126.7879,-117.3499 121.0654,-126.2664 131.0993,-122.8646 126.7879,-117.3499"/>
<text text-anchor="middle" x="171.8618" y="-94.8" font-family="Times,serif" font-size="14.00" fill="#000000">git push</text>
</g>
</g>
</svg>
