<?xml version="1.0" encoding="UTF-8" standalone="no"?>
<!DOCTYPE svg PUBLIC "-//W3C//DTD SVG 1.1//EN"
 "http://www.w3.org/Graphics/SVG/1.1/DTD/svg11.dtd">
<!-- Generated by graphviz version 2.40.1 (20161225.0304)
 -->
<!-- Title: %3 Pages: 1 -->
<svg width="235pt" height="318pt"
 viewBox="0.00 0.00 235.00 318.00" xmlns="http://www.w3.org/2000/svg" xmlns:xlink="http://www.w3.org/1999/xlink">
<g id="graph0" class="graph" transform="scale(1 1) rotate(0) translate(4 314)">
<title>%3</title>
<polygon fill="#ffffff" stroke="transparent" points="-4,4 -4,-314 231,-314 231,4 -4,4"/>
<g id="clust1" class="cluster">
<title>clustermaster</title>
<polygon fill="none" stroke="#000000" points="8,-8 8,-227 102,-227 102,-8 8,-8"/>
<text text-anchor="middle" x="55" y="-211.8" font-family="Times,serif" font-size="14.00" fill="#000000">master</text>
</g>
<g id="clust2" class="cluster">
<title>clusterfeature</title>
<polygon fill="none" stroke="#000000" points="110,-152 110,-302 219,-302 219,-152 110,-152"/>
<text text-anchor="middle" x="164.5" y="-286.8" font-family="Times,serif" font-size="14.00" fill="#000000">topic/feature</text>
</g>
<!-- master3 -->
<g id="node1" class="node">
<title>master3</title>
<path fill="#32cd32" stroke="#32cd32" d="M82,-196C82,-196 28,-196 28,-196 22,-196 16,-190 16,-184 16,-184 16,-172 16,-172 16,-166 22,-160 28,-160 28,-160 82,-160 82,-160 88,-160 94,-166 94,-172 94,-172 94,-184 94,-184 94,-190 88,-196 82,-196"/>
<text text-anchor="middle" x="55" y="-174.3" font-family="Times,serif" font-size="14.00" fill="#000000">ebe0262</text>
</g>
<!-- master2 -->
<g id="node2" class="node">
<title>master2</title>
<path fill="#32cd32" stroke="#32cd32" d="M79,-124C79,-124 31,-124 31,-124 25,-124 19,-118 19,-112 19,-112 19,-100 19,-100 19,-94 25,-88 31,-88 31,-88 79,-88 79,-88 85,-88 91,-94 91,-100 91,-100 91,-112 91,-112 91,-118 85,-124 79,-124"/>
<text text-anchor="middle" x="55" y="-102.3" font-family="Times,serif" font-size="14.00" fill="#000000">03f4f8d</text>
</g>
<!-- master3&#45;&gt;master2 -->
<g id="edge1" class="edge">
<title>master3&#45;&gt;master2</title>
<path fill="none" stroke="#000000" d="M55,-159.8314C55,-152.131 55,-142.9743 55,-134.4166"/>
<polygon fill="#000000" stroke="#000000" points="58.5001,-134.4132 55,-124.4133 51.5001,-134.4133 58.5001,-134.4132"/>
</g>
<!-- master1 -->
<g id="node3" class="node">
<title>master1</title>
<path fill="#32cd32" stroke="#32cd32" d="M81.5,-52C81.5,-52 28.5,-52 28.5,-52 22.5,-52 16.5,-46 16.5,-40 16.5,-40 16.5,-28 16.5,-28 16.5,-22 22.5,-16 28.5,-16 28.5,-16 81.5,-16 81.5,-16 87.5,-16 93.5,-22 93.5,-28 93.5,-28 93.5,-40 93.5,-40 93.5,-46 87.5,-52 81.5,-52"/>
<text text-anchor="middle" x="55" y="-30.3" font-family="Times,serif" font-size="14.00" fill="#000000">62a0ee9</text>
</g>
<!-- master2&#45;&gt;master1 -->
<g id="edge2" class="edge">
<title>master2&#45;&gt;master1</title>
<path fill="none" stroke="#000000" d="M55,-87.8314C55,-80.131 55,-70.9743 55,-62.4166"/>
<polygon fill="#000000" stroke="#000000" points="58.5001,-62.4132 55,-52.4133 51.5001,-62.4133 58.5001,-62.4132"/>
</g>
<!-- feature2 -->
<g id="node4" class="node">
<title>feature2</title>
<path fill="#da70d6" stroke="#da70d6" d="M182,-271C182,-271 130,-271 130,-271 124,-271 118,-265 118,-259 118,-259 118,-247 118,-247 118,-241 124,-235 130,-235 130,-235 182,-235 182,-235 188,-235 194,-241 194,-247 194,-247 194,-259 194,-259 194,-265 188,-271 182,-271"/>
<text text-anchor="middle" x="156" y="-249.3" font-family="Times,serif" font-size="14.00" fill="#000000">8b29f74</text>
</g>
<!-- feature1 -->
<g id="node5" class="node">
<title>feature1</title>
<path fill="#da70d6" stroke="#da70d6" d="M182,-196C182,-196 130,-196 130,-196 124,-196 118,-190 118,-184 118,-184 118,-172 118,-172 118,-166 124,-160 130,-160 130,-160 182,-160 182,-160 188,-160 194,-166 194,-172 194,-172 194,-184 194,-184 194,-190 188,-196 182,-196"/>
<text text-anchor="middle" x="156" y="-174.3" font-family="Times,serif" font-size="14.00" fill="#000000">7f295dd</text>
</g>
<!-- feature2&#45;&gt;feature1 -->
<g id="edge3" class="edge">
<title>feature2&#45;&gt;feature1</title>
<path fill="none" stroke="#000000" d="M156,-234.8446C156,-226.3401 156,-216.0076 156,-206.4964"/>
<polygon fill="#000000" stroke="#000000" points="159.5001,-206.2481 156,-196.2482 152.5001,-206.2482 159.5001,-206.2481"/>
</g>
<!-- feature1&#45;&gt;master2 -->
<g id="edge4" class="edge">
<title>feature1&#45;&gt;master2</title>
<path fill="none" stroke="#000000" d="M130.5134,-159.8314C117.8341,-150.7927 102.3404,-139.7476 88.6945,-130.0198"/>
<polygon fill="#000000" stroke="#000000" points="90.6529,-127.1176 80.4784,-124.1628 86.5895,-132.8176 90.6529,-127.1176"/>
</g>
</g>
</svg>
