<?xml version="1.0" encoding="UTF-8" standalone="no"?>
<!DOCTYPE svg PUBLIC "-//W3C//DTD SVG 1.1//EN"
 "http://www.w3.org/Graphics/SVG/1.1/DTD/svg11.dtd">
<!-- Generated by graphviz version 12.1.1 (0)
 -->
<!-- Pages: 1 -->
<svg width="207pt" height="214pt"
 viewBox="0.00 0.00 207.43 213.75" xmlns="http://www.w3.org/2000/svg" xmlns:xlink="http://www.w3.org/1999/xlink">
<g id="graph0" class="graph" transform="scale(1 1) rotate(0) translate(4 209.75)">
<polygon fill="white" stroke="none" points="-4,4 -4,-209.75 203.43,-209.75 203.43,4 -4,4"/>
<g id="clust1" class="cluster">
<title>clusterorigin</title>
<polygon fill="none" stroke="black" points="51.54,-120.5 51.54,-197.75 121.54,-197.75 121.54,-120.5 51.54,-120.5"/>
<text text-anchor="middle" x="86.54" y="-180.45" font-family="Times,serif" font-size="14.00">origin</text>
</g>
<g id="clust2" class="cluster">
<title>clusterlocal</title>
<polygon fill="none" stroke="black" points="51.54,-8 51.54,-85.25 121.54,-85.25 121.54,-8 51.54,-8"/>
<text text-anchor="middle" x="86.54" y="-67.95" font-family="Times,serif" font-size="14.00">local</text>
</g>
<!-- omain -->
<g id="node1" class="node">
<title>omain</title>
<path fill="orchid" stroke="orchid" d="M101.54,-164.5C101.54,-164.5 71.54,-164.5 71.54,-164.5 65.54,-164.5 59.54,-158.5 59.54,-152.5 59.54,-152.5 59.54,-140.5 59.54,-140.5 59.54,-134.5 65.54,-128.5 71.54,-128.5 71.54,-128.5 101.54,-128.5 101.54,-128.5 107.54,-128.5 113.54,-134.5 113.54,-140.5 113.54,-140.5 113.54,-152.5 113.54,-152.5 113.54,-158.5 107.54,-164.5 101.54,-164.5"/>
<text text-anchor="middle" x="86.54" y="-141.82" font-family="Times,serif" font-size="14.00">main</text>
</g>
<!-- main -->
<g id="node2" class="node">
<title>main</title>
<path fill="orchid" stroke="orchid" d="M101.54,-52C101.54,-52 71.54,-52 71.54,-52 65.54,-52 59.54,-46 59.54,-40 59.54,-40 59.54,-28 59.54,-28 59.54,-22 65.54,-16 71.54,-16 71.54,-16 101.54,-16 101.54,-16 107.54,-16 113.54,-22 113.54,-28 113.54,-28 113.54,-40 113.54,-40 113.54,-46 107.54,-52 101.54,-52"/>
<text text-anchor="middle" x="86.54" y="-29.32" font-family="Times,serif" font-size="14.00">main</text>
</g>
<!-- omain&#45;&gt;main -->
<g id="edge1" class="edge">
<title>omain&#45;&gt;main</title>
<path fill="none" stroke="black" stroke-dasharray="1,5" d="M59.05,-141.68C40.22,-137.48 16.57,-128.71 4.54,-110.5 -11.65,-85.98 20.22,-63.98 48.83,-50.15"/>
<polygon fill="black" stroke="black" points="50.12,-53.4 57.75,-46.06 47.2,-47.04 50.12,-53.4"/>
<text text-anchor="middle" x="34.54" y="-97.2" font-family="Times,serif" font-size="14.00">git fetch</text>
</g>
<!-- omain&#45;&gt;main -->
<g id="edge3" class="edge">
<title>omain&#45;&gt;main</title>
<path fill="none" stroke="black" d="M84.75,-128.07C84.26,-122.47 83.79,-116.23 83.54,-110.5 82.88,-95.09 83.46,-77.91 84.28,-63.84"/>
<polygon fill="black" stroke="black" points="87.77,-64.11 84.94,-53.9 80.79,-63.65 87.77,-64.11"/>
<text text-anchor="middle" x="109.04" y="-97.2" font-family="Times,serif" font-size="14.00">git pull</text>
</g>
<!-- main&#45;&gt;omain -->
<g id="edge2" class="edge">
<title>main&#45;&gt;omain</title>
<path fill="none" stroke="black" d="M108.44,-52.46C119.76,-62.93 132.46,-77.29 138.54,-93.25 141.27,-100.41 142.15,-103.73 138.54,-110.5 134.94,-117.28 129.37,-122.98 123.19,-127.68"/>
<polygon fill="black" stroke="black" points="121.53,-124.58 115.13,-133.02 125.4,-130.41 121.53,-124.58"/>
<text text-anchor="middle" x="170.18" y="-97.2" font-family="Times,serif" font-size="14.00">git push</text>
</g>
</g>
</svg>
