<?xml version="1.0" encoding="UTF-8" standalone="no"?>
<!DOCTYPE svg PUBLIC "-//W3C//DTD SVG 1.1//EN"
 "http://www.w3.org/Graphics/SVG/1.1/DTD/svg11.dtd">
<!-- Generated by graphviz version 2.40.1 (20161225.0304)
 -->
<!-- Title: %3 Pages: 1 -->
<svg width="211pt" height="318pt"
 viewBox="0.00 0.00 211.00 318.00" xmlns="http://www.w3.org/2000/svg" xmlns:xlink="http://www.w3.org/1999/xlink">
<g id="graph0" class="graph" transform="scale(1 1) rotate(0) translate(4 314)">
<title>%3</title>
<polygon fill="#ffffff" stroke="transparent" points="-4,4 -4,-314 207,-314 207,4 -4,4"/>
<g id="clust1" class="cluster">
<title>clustermaster</title>
<polygon fill="none" stroke="#000000" points="8,-8 8,-302 78,-302 78,-8 8,-8"/>
<text text-anchor="middle" x="43" y="-286.8" font-family="Times,serif" font-size="14.00" fill="#000000">master</text>
</g>
<g id="clust2" class="cluster">
<title>clusterfeature</title>
<polygon fill="none" stroke="#000000" points="86,-80 86,-227 195,-227 195,-80 86,-80"/>
<text text-anchor="middle" x="140.5" y="-211.8" font-family="Times,serif" font-size="14.00" fill="#000000">topic/feature</text>
</g>
<!-- A -->
<g id="node1" class="node">
<title>A</title>
<path fill="#32cd32" stroke="#32cd32" d="M58,-52C58,-52 28,-52 28,-52 22,-52 16,-46 16,-40 16,-40 16,-28 16,-28 16,-22 22,-16 28,-16 28,-16 58,-16 58,-16 64,-16 70,-22 70,-28 70,-28 70,-40 70,-40 70,-46 64,-52 58,-52"/>
<text text-anchor="middle" x="43" y="-30.3" font-family="Times,serif" font-size="14.00" fill="#000000">A</text>
</g>
<!-- B -->
<g id="node2" class="node">
<title>B</title>
<path fill="#32cd32" stroke="#32cd32" d="M58,-124C58,-124 28,-124 28,-124 22,-124 16,-118 16,-112 16,-112 16,-100 16,-100 16,-94 22,-88 28,-88 28,-88 58,-88 58,-88 64,-88 70,-94 70,-100 70,-100 70,-112 70,-112 70,-118 64,-124 58,-124"/>
<text text-anchor="middle" x="43" y="-102.3" font-family="Times,serif" font-size="14.00" fill="#000000">B</text>
</g>
<!-- B&#45;&gt;A -->
<g id="edge3" class="edge">
<title>B&#45;&gt;A</title>
<path fill="none" stroke="#000000" d="M43,-87.8314C43,-80.131 43,-70.9743 43,-62.4166"/>
<polygon fill="#000000" stroke="#000000" points="46.5001,-62.4132 43,-52.4133 39.5001,-62.4133 46.5001,-62.4132"/>
</g>
<!-- C -->
<g id="node3" class="node">
<title>C</title>
<path fill="#32cd32" stroke="#32cd32" d="M58,-196C58,-196 28,-196 28,-196 22,-196 16,-190 16,-184 16,-184 16,-172 16,-172 16,-166 22,-160 28,-160 28,-160 58,-160 58,-160 64,-160 70,-166 70,-172 70,-172 70,-184 70,-184 70,-190 64,-196 58,-196"/>
<text text-anchor="middle" x="43" y="-174.3" font-family="Times,serif" font-size="14.00" fill="#000000">C</text>
</g>
<!-- C&#45;&gt;B -->
<g id="edge2" class="edge">
<title>C&#45;&gt;B</title>
<path fill="none" stroke="#000000" d="M43,-159.8314C43,-152.131 43,-142.9743 43,-134.4166"/>
<polygon fill="#000000" stroke="#000000" points="46.5001,-134.4132 43,-124.4133 39.5001,-134.4133 46.5001,-134.4132"/>
</g>
<!-- M -->
<g id="node4" class="node">
<title>M</title>
<path fill="#32cd32" stroke="#32cd32" d="M58,-271C58,-271 28,-271 28,-271 22,-271 16,-265 16,-259 16,-259 16,-247 16,-247 16,-241 22,-235 28,-235 28,-235 58,-235 58,-235 64,-235 70,-241 70,-247 70,-247 70,-259 70,-259 70,-265 64,-271 58,-271"/>
<text text-anchor="middle" x="43" y="-249.3" font-family="Times,serif" font-size="14.00" fill="#000000">M</text>
</g>
<!-- M&#45;&gt;C -->
<g id="edge1" class="edge">
<title>M&#45;&gt;C</title>
<path fill="none" stroke="#000000" d="M43,-234.8446C43,-226.3401 43,-216.0076 43,-206.4964"/>
<polygon fill="#000000" stroke="#000000" points="46.5001,-206.2481 43,-196.2482 39.5001,-206.2482 46.5001,-206.2481"/>
</g>
<!-- F2 -->
<g id="node6" class="node">
<title>F2</title>
<path fill="#da70d6" stroke="#da70d6" d="M136,-196C136,-196 106,-196 106,-196 100,-196 94,-190 94,-184 94,-184 94,-172 94,-172 94,-166 100,-160 106,-160 106,-160 136,-160 136,-160 142,-160 148,-166 148,-172 148,-172 148,-184 148,-184 148,-190 142,-196 136,-196"/>
<text text-anchor="middle" x="121" y="-174.3" font-family="Times,serif" font-size="14.00" fill="#000000">F2</text>
</g>
<!-- M&#45;&gt;F2 -->
<g id="edge6" class="edge">
<title>M&#45;&gt;F2</title>
<path fill="none" stroke="#000000" d="M70.2556,-236.4254C74.3532,-233.4875 78.4052,-230.304 82,-227 89.2895,-220.3001 96.3278,-212.1666 102.3713,-204.4672"/>
<polygon fill="#000000" stroke="#000000" points="105.2555,-206.456 108.5034,-196.3713 99.6755,-202.2295 105.2555,-206.456"/>
</g>
<!-- F1 -->
<g id="node5" class="node">
<title>F1</title>
<path fill="#da70d6" stroke="#da70d6" d="M136,-124C136,-124 106,-124 106,-124 100,-124 94,-118 94,-112 94,-112 94,-100 94,-100 94,-94 100,-88 106,-88 106,-88 136,-88 136,-88 142,-88 148,-94 148,-100 148,-100 148,-112 148,-112 148,-118 142,-124 136,-124"/>
<text text-anchor="middle" x="121" y="-102.3" font-family="Times,serif" font-size="14.00" fill="#000000">F1</text>
</g>
<!-- F1&#45;&gt;A -->
<g id="edge5" class="edge">
<title>F1&#45;&gt;A</title>
<path fill="none" stroke="#000000" d="M101.3173,-87.8314C91.8949,-79.1337 80.4599,-68.5783 70.2204,-59.1265"/>
<polygon fill="#000000" stroke="#000000" points="72.3984,-56.3738 62.6764,-52.1628 67.6505,-61.5175 72.3984,-56.3738"/>
</g>
<!-- F2&#45;&gt;F1 -->
<g id="edge4" class="edge">
<title>F2&#45;&gt;F1</title>
<path fill="none" stroke="#000000" d="M121,-159.8314C121,-152.131 121,-142.9743 121,-134.4166"/>
<polygon fill="#000000" stroke="#000000" points="124.5001,-134.4132 121,-124.4133 117.5001,-134.4133 124.5001,-134.4132"/>
</g>
</g>
</svg>
