<?xml version="1.0" encoding="UTF-8" standalone="no"?>
<!DOCTYPE svg PUBLIC "-//W3C//DTD SVG 1.1//EN"
 "http://www.w3.org/Graphics/SVG/1.1/DTD/svg11.dtd">
<!-- Generated by graphviz version 12.1.1 (0)
 -->
<!-- Pages: 1 -->
<svg width="360pt" height="214pt"
 viewBox="0.00 0.00 359.76 213.75" xmlns="http://www.w3.org/2000/svg" xmlns:xlink="http://www.w3.org/1999/xlink">
<g id="graph0" class="graph" transform="scale(1 1) rotate(0) translate(4 209.75)">
<polygon fill="white" stroke="none" points="-4,4 -4,-209.75 355.76,-209.75 355.76,4 -4,4"/>
<g id="clust1" class="cluster">
<title>clusterorigin</title>
<polygon fill="none" stroke="black" points="8,-120.5 8,-197.75 78,-197.75 78,-120.5 8,-120.5"/>
<text text-anchor="middle" x="43" y="-180.45" font-family="Times,serif" font-size="14.00">origin</text>
</g>
<g id="clust2" class="cluster">
<title>clusterlocal</title>
<polygon fill="none" stroke="black" points="8,-8 8,-85.25 78,-85.25 78,-8 8,-8"/>
<text text-anchor="middle" x="43" y="-67.95" font-family="Times,serif" font-size="14.00">local</text>
</g>
<g id="clust3" class="cluster">
<title>clusteralice</title>
<polygon fill="none" stroke="black" points="114,-120.5 114,-197.75 184,-197.75 184,-120.5 114,-120.5"/>
<text text-anchor="middle" x="149" y="-180.45" font-family="Times,serif" font-size="14.00">alice</text>
</g>
<g id="clust4" class="cluster">
<title>clusterbob</title>
<polygon fill="none" stroke="black" points="248,-120.5 248,-197.75 318,-197.75 318,-120.5 248,-120.5"/>
<text text-anchor="middle" x="283" y="-180.45" font-family="Times,serif" font-size="14.00">bob</text>
</g>
<!-- omain -->
<g id="node1" class="node">
<title>omain</title>
<path fill="orchid" stroke="orchid" d="M58,-164.5C58,-164.5 28,-164.5 28,-164.5 22,-164.5 16,-158.5 16,-152.5 16,-152.5 16,-140.5 16,-140.5 16,-134.5 22,-128.5 28,-128.5 28,-128.5 58,-128.5 58,-128.5 64,-128.5 70,-134.5 70,-140.5 70,-140.5 70,-152.5 70,-152.5 70,-158.5 64,-164.5 58,-164.5"/>
<text text-anchor="middle" x="43" y="-141.82" font-family="Times,serif" font-size="14.00">main</text>
</g>
<!-- main -->
<g id="node2" class="node">
<title>main</title>
<path fill="orchid" stroke="orchid" d="M58,-52C58,-52 28,-52 28,-52 22,-52 16,-46 16,-40 16,-40 16,-28 16,-28 16,-22 22,-16 28,-16 28,-16 58,-16 58,-16 64,-16 70,-22 70,-28 70,-28 70,-40 70,-40 70,-46 64,-52 58,-52"/>
<text text-anchor="middle" x="43" y="-29.32" font-family="Times,serif" font-size="14.00">main</text>
</g>
<!-- omain&#45;&gt;main -->
<g id="edge1" class="edge">
<title>omain&#45;&gt;main</title>
<path fill="none" stroke="black" d="M43,-128.23C43,-110.96 43,-84.09 43,-63.62"/>
<polygon fill="black" stroke="black" points="46.5,-63.66 43,-53.66 39.5,-63.66 46.5,-63.66"/>
<text text-anchor="middle" x="68.5" y="-97.2" font-family="Times,serif" font-size="14.00">git pull</text>
</g>
<!-- main&#45;&gt;omain -->
<g id="edge2" class="edge">
<title>main&#45;&gt;omain</title>
<path fill="none" stroke="black" d="M64.9,-52.46C76.22,-62.93 88.91,-77.29 95,-93.25 97.73,-100.41 98.6,-103.73 95,-110.5 91.39,-117.28 85.82,-122.98 79.65,-127.68"/>
<polygon fill="black" stroke="black" points="77.99,-124.58 71.59,-133.02 81.86,-130.41 77.99,-124.58"/>
<text text-anchor="middle" x="126.64" y="-97.2" font-family="Times,serif" font-size="14.00">git push</text>
</g>
<!-- amain -->
<g id="node3" class="node">
<title>amain</title>
<path fill="limegreen" stroke="limegreen" d="M164,-164.5C164,-164.5 134,-164.5 134,-164.5 128,-164.5 122,-158.5 122,-152.5 122,-152.5 122,-140.5 122,-140.5 122,-134.5 128,-128.5 134,-128.5 134,-128.5 164,-128.5 164,-128.5 170,-128.5 176,-134.5 176,-140.5 176,-140.5 176,-152.5 176,-152.5 176,-158.5 170,-164.5 164,-164.5"/>
<text text-anchor="middle" x="149" y="-141.82" font-family="Times,serif" font-size="14.00">main</text>
</g>
<!-- amain&#45;&gt;main -->
<g id="edge3" class="edge">
<title>amain&#45;&gt;main</title>
<path fill="none" stroke="black" d="M158.57,-128.41C163.22,-117.63 166.54,-103.81 160,-93.25 142.96,-65.74 108.59,-50.8 81.49,-42.97"/>
<polygon fill="black" stroke="black" points="82.42,-39.59 71.86,-40.41 80.63,-46.36 82.42,-39.59"/>
<text text-anchor="middle" x="207.9" y="-97.2" font-family="Times,serif" font-size="14.00">git pull alice</text>
</g>
<!-- bmain -->
<g id="node4" class="node">
<title>bmain</title>
<path fill="lightskyblue" stroke="lightskyblue" d="M298,-164.5C298,-164.5 268,-164.5 268,-164.5 262,-164.5 256,-158.5 256,-152.5 256,-152.5 256,-140.5 256,-140.5 256,-134.5 262,-128.5 268,-128.5 268,-128.5 298,-128.5 298,-128.5 304,-128.5 310,-134.5 310,-140.5 310,-140.5 310,-152.5 310,-152.5 310,-158.5 304,-164.5 298,-164.5"/>
<text text-anchor="middle" x="283" y="-141.82" font-family="Times,serif" font-size="14.00">main</text>
</g>
<!-- bmain&#45;&gt;main -->
<g id="edge4" class="edge">
<title>bmain&#45;&gt;main</title>
<path fill="none" stroke="black" d="M278.06,-128.08C273.94,-116.61 266.95,-102.11 256,-93.25 205.28,-52.2 127.87,-39.99 81.66,-36.41"/>
<polygon fill="black" stroke="black" points="82.06,-32.93 71.85,-35.76 81.6,-39.92 82.06,-32.93"/>
<text text-anchor="middle" x="310.89" y="-97.2" font-family="Times,serif" font-size="14.00">git pull bob</text>
</g>
</g>
</svg>
