<?xml version="1.0" encoding="UTF-8" standalone="no"?>
<!DOCTYPE svg PUBLIC "-//W3C//DTD SVG 1.1//EN"
 "http://www.w3.org/Graphics/SVG/1.1/DTD/svg11.dtd">
<!-- Generated by graphviz version 12.1.1 (0)
 -->
<!-- Pages: 1 -->
<svg width="209pt" height="323pt"
 viewBox="0.00 0.00 209.00 322.50" xmlns="http://www.w3.org/2000/svg" xmlns:xlink="http://www.w3.org/1999/xlink">
<g id="graph0" class="graph" transform="scale(1 1) rotate(0) translate(4 318.5)">
<polygon fill="white" stroke="none" points="-4,4 -4,-318.5 205,-318.5 205,4 -4,4"/>
<g id="clust1" class="cluster">
<title>clustermain</title>
<polygon fill="none" stroke="black" points="8,-8 8,-306.5 78,-306.5 78,-8 8,-8"/>
<text text-anchor="middle" x="43" y="-289.2" font-family="Times,serif" font-size="14.00">main</text>
</g>
<g id="clust2" class="cluster">
<title>clusterfeature</title>
<polygon fill="none" stroke="black" points="86,-80 86,-229.25 193,-229.25 193,-80 86,-80"/>
<text text-anchor="middle" x="139.5" y="-211.95" font-family="Times,serif" font-size="14.00">topic/feature</text>
</g>
<!-- A -->
<g id="node1" class="node">
<title>A</title>
<path fill="limegreen" stroke="limegreen" d="M58,-52C58,-52 28,-52 28,-52 22,-52 16,-46 16,-40 16,-40 16,-28 16,-28 16,-22 22,-16 28,-16 28,-16 58,-16 58,-16 64,-16 70,-22 70,-28 70,-28 70,-40 70,-40 70,-46 64,-52 58,-52"/>
<text text-anchor="middle" x="43" y="-29.32" font-family="Times,serif" font-size="14.00">A</text>
</g>
<!-- B -->
<g id="node2" class="node">
<title>B</title>
<path fill="limegreen" stroke="limegreen" d="M58,-124C58,-124 28,-124 28,-124 22,-124 16,-118 16,-112 16,-112 16,-100 16,-100 16,-94 22,-88 28,-88 28,-88 58,-88 58,-88 64,-88 70,-94 70,-100 70,-100 70,-112 70,-112 70,-118 64,-124 58,-124"/>
<text text-anchor="middle" x="43" y="-101.33" font-family="Times,serif" font-size="14.00">B</text>
</g>
<!-- B&#45;&gt;A -->
<g id="edge3" class="edge">
<title>B&#45;&gt;A</title>
<path fill="none" stroke="black" d="M43,-87.7C43,-80.41 43,-71.73 43,-63.54"/>
<polygon fill="black" stroke="black" points="46.5,-63.62 43,-53.62 39.5,-63.62 46.5,-63.62"/>
</g>
<!-- C -->
<g id="node3" class="node">
<title>C</title>
<path fill="limegreen" stroke="limegreen" d="M58,-196C58,-196 28,-196 28,-196 22,-196 16,-190 16,-184 16,-184 16,-172 16,-172 16,-166 22,-160 28,-160 28,-160 58,-160 58,-160 64,-160 70,-166 70,-172 70,-172 70,-184 70,-184 70,-190 64,-196 58,-196"/>
<text text-anchor="middle" x="43" y="-173.32" font-family="Times,serif" font-size="14.00">C</text>
</g>
<!-- C&#45;&gt;B -->
<g id="edge2" class="edge">
<title>C&#45;&gt;B</title>
<path fill="none" stroke="black" d="M43,-159.7C43,-152.41 43,-143.73 43,-135.54"/>
<polygon fill="black" stroke="black" points="46.5,-135.62 43,-125.62 39.5,-135.62 46.5,-135.62"/>
</g>
<!-- M -->
<g id="node4" class="node">
<title>M</title>
<path fill="limegreen" stroke="limegreen" d="M58,-273.25C58,-273.25 28,-273.25 28,-273.25 22,-273.25 16,-267.25 16,-261.25 16,-261.25 16,-249.25 16,-249.25 16,-243.25 22,-237.25 28,-237.25 28,-237.25 58,-237.25 58,-237.25 64,-237.25 70,-243.25 70,-249.25 70,-249.25 70,-261.25 70,-261.25 70,-267.25 64,-273.25 58,-273.25"/>
<text text-anchor="middle" x="43" y="-250.57" font-family="Times,serif" font-size="14.00">M</text>
</g>
<!-- M&#45;&gt;C -->
<g id="edge1" class="edge">
<title>M&#45;&gt;C</title>
<path fill="none" stroke="black" d="M43,-236.8C43,-228.15 43,-217.5 43,-207.69"/>
<polygon fill="black" stroke="black" points="46.5,-207.87 43,-197.87 39.5,-207.87 46.5,-207.87"/>
</g>
<!-- F2 -->
<g id="node6" class="node">
<title>F2</title>
<path fill="orchid" stroke="orchid" d="M136,-196C136,-196 106,-196 106,-196 100,-196 94,-190 94,-184 94,-184 94,-172 94,-172 94,-166 100,-160 106,-160 106,-160 136,-160 136,-160 142,-160 148,-166 148,-172 148,-172 148,-184 148,-184 148,-190 142,-196 136,-196"/>
<text text-anchor="middle" x="121" y="-173.32" font-family="Times,serif" font-size="14.00">F2</text>
</g>
<!-- M&#45;&gt;F2 -->
<g id="edge6" class="edge">
<title>M&#45;&gt;F2</title>
<path fill="none" stroke="black" d="M70.31,-238.45C74.4,-235.61 78.44,-232.51 82,-229.25 89.62,-222.29 96.87,-213.72 103.01,-205.63"/>
<polygon fill="black" stroke="black" points="105.71,-207.87 108.77,-197.72 100.05,-203.75 105.71,-207.87"/>
</g>
<!-- F1 -->
<g id="node5" class="node">
<title>F1</title>
<path fill="orchid" stroke="orchid" d="M136,-124C136,-124 106,-124 106,-124 100,-124 94,-118 94,-112 94,-112 94,-100 94,-100 94,-94 100,-88 106,-88 106,-88 136,-88 136,-88 142,-88 148,-94 148,-100 148,-100 148,-112 148,-112 148,-118 142,-124 136,-124"/>
<text text-anchor="middle" x="121" y="-101.33" font-family="Times,serif" font-size="14.00">F1</text>
</g>
<!-- F1&#45;&gt;A -->
<g id="edge5" class="edge">
<title>F1&#45;&gt;A</title>
<path fill="none" stroke="black" d="M101.72,-87.7C92.34,-79.28 80.91,-69.02 70.62,-59.79"/>
<polygon fill="black" stroke="black" points="73.24,-57.43 63.46,-53.36 68.56,-62.64 73.24,-57.43"/>
</g>
<!-- F2&#45;&gt;F1 -->
<g id="edge4" class="edge">
<title>F2&#45;&gt;F1</title>
<path fill="none" stroke="black" d="M121,-159.7C121,-152.41 121,-143.73 121,-135.54"/>
<polygon fill="black" stroke="black" points="124.5,-135.62 121,-125.62 117.5,-135.62 124.5,-135.62"/>
</g>
</g>
</svg>
