<?xml version="1.0" encoding="UTF-8" standalone="no"?>
<!DOCTYPE svg PUBLIC "-//W3C//DTD SVG 1.1//EN"
 "http://www.w3.org/Graphics/SVG/1.1/DTD/svg11.dtd">
<!-- Generated by graphviz version 12.1.1 (0)
 -->
<!-- Pages: 1 -->
<svg width="233pt" height="323pt"
 viewBox="0.00 0.00 233.00 322.50" xmlns="http://www.w3.org/2000/svg" xmlns:xlink="http://www.w3.org/1999/xlink">
<g id="graph0" class="graph" transform="scale(1 1) rotate(0) translate(4 318.5)">
<polygon fill="white" stroke="none" points="-4,4 -4,-318.5 229,-318.5 229,4 -4,4"/>
<g id="clust1" class="cluster">
<title>clustermain</title>
<polygon fill="none" stroke="black" points="8,-8 8,-229.25 102,-229.25 102,-8 8,-8"/>
<text text-anchor="middle" x="55" y="-211.95" font-family="Times,serif" font-size="14.00">main</text>
</g>
<g id="clust2" class="cluster">
<title>clusterfeature</title>
<polygon fill="none" stroke="black" points="110,-152 110,-306.5 217,-306.5 217,-152 110,-152"/>
<text text-anchor="middle" x="163.5" y="-289.2" font-family="Times,serif" font-size="14.00">topic/feature</text>
</g>
<!-- main3 -->
<g id="node1" class="node">
<title>main3</title>
<path fill="limegreen" stroke="limegreen" d="M81.75,-196C81.75,-196 28.25,-196 28.25,-196 22.25,-196 16.25,-190 16.25,-184 16.25,-184 16.25,-172 16.25,-172 16.25,-166 22.25,-160 28.25,-160 28.25,-160 81.75,-160 81.75,-160 87.75,-160 93.75,-166 93.75,-172 93.75,-172 93.75,-184 93.75,-184 93.75,-190 87.75,-196 81.75,-196"/>
<text text-anchor="middle" x="55" y="-173.32" font-family="Times,serif" font-size="14.00">ebe0262</text>
</g>
<!-- main2 -->
<g id="node2" class="node">
<title>main2</title>
<path fill="limegreen" stroke="limegreen" d="M78.75,-124C78.75,-124 31.25,-124 31.25,-124 25.25,-124 19.25,-118 19.25,-112 19.25,-112 19.25,-100 19.25,-100 19.25,-94 25.25,-88 31.25,-88 31.25,-88 78.75,-88 78.75,-88 84.75,-88 90.75,-94 90.75,-100 90.75,-100 90.75,-112 90.75,-112 90.75,-118 84.75,-124 78.75,-124"/>
<text text-anchor="middle" x="55" y="-101.33" font-family="Times,serif" font-size="14.00">03f4f8d</text>
</g>
<!-- main3&#45;&gt;main2 -->
<g id="edge1" class="edge">
<title>main3&#45;&gt;main2</title>
<path fill="none" stroke="black" d="M55,-159.7C55,-152.41 55,-143.73 55,-135.54"/>
<polygon fill="black" stroke="black" points="58.5,-135.62 55,-125.62 51.5,-135.62 58.5,-135.62"/>
</g>
<!-- main1 -->
<g id="node3" class="node">
<title>main1</title>
<path fill="limegreen" stroke="limegreen" d="M81.38,-52C81.38,-52 28.62,-52 28.62,-52 22.62,-52 16.62,-46 16.62,-40 16.62,-40 16.62,-28 16.62,-28 16.62,-22 22.62,-16 28.62,-16 28.62,-16 81.38,-16 81.38,-16 87.38,-16 93.38,-22 93.38,-28 93.38,-28 93.38,-40 93.38,-40 93.38,-46 87.38,-52 81.38,-52"/>
<text text-anchor="middle" x="55" y="-29.32" font-family="Times,serif" font-size="14.00">62a0ee9</text>
</g>
<!-- main2&#45;&gt;main1 -->
<g id="edge2" class="edge">
<title>main2&#45;&gt;main1</title>
<path fill="none" stroke="black" d="M55,-87.7C55,-80.41 55,-71.73 55,-63.54"/>
<polygon fill="black" stroke="black" points="58.5,-63.62 55,-53.62 51.5,-63.62 58.5,-63.62"/>
</g>
<!-- feature2 -->
<g id="node4" class="node">
<title>feature2</title>
<path fill="orchid" stroke="orchid" d="M181.62,-273.25C181.62,-273.25 130.38,-273.25 130.38,-273.25 124.38,-273.25 118.38,-267.25 118.38,-261.25 118.38,-261.25 118.38,-249.25 118.38,-249.25 118.38,-243.25 124.38,-237.25 130.38,-237.25 130.38,-237.25 181.62,-237.25 181.62,-237.25 187.62,-237.25 193.62,-243.25 193.62,-249.25 193.62,-249.25 193.62,-261.25 193.62,-261.25 193.62,-267.25 187.62,-273.25 181.62,-273.25"/>
<text text-anchor="middle" x="156" y="-250.57" font-family="Times,serif" font-size="14.00">8b29f74</text>
</g>
<!-- feature1 -->
<g id="node5" class="node">
<title>feature1</title>
<path fill="orchid" stroke="orchid" d="M181.62,-196C181.62,-196 130.38,-196 130.38,-196 124.38,-196 118.38,-190 118.38,-184 118.38,-184 118.38,-172 118.38,-172 118.38,-166 124.38,-160 130.38,-160 130.38,-160 181.62,-160 181.62,-160 187.62,-160 193.62,-166 193.62,-172 193.62,-172 193.62,-184 193.62,-184 193.62,-190 187.62,-196 181.62,-196"/>
<text text-anchor="middle" x="156" y="-173.32" font-family="Times,serif" font-size="14.00">7f295dd</text>
</g>
<!-- feature2&#45;&gt;feature1 -->
<g id="edge3" class="edge">
<title>feature2&#45;&gt;feature1</title>
<path fill="none" stroke="black" d="M156,-236.8C156,-228.15 156,-217.5 156,-207.69"/>
<polygon fill="black" stroke="black" points="159.5,-207.87 156,-197.87 152.5,-207.87 159.5,-207.87"/>
</g>
<!-- feature1&#45;&gt;main2 -->
<g id="edge4" class="edge">
<title>feature1&#45;&gt;main2</title>
<path fill="none" stroke="black" d="M130.77,-159.52C118.15,-150.76 102.68,-140.04 89.02,-130.58"/>
<polygon fill="black" stroke="black" points="91.36,-127.94 81.15,-125.12 87.37,-133.7 91.36,-127.94"/>
</g>
</g>
</svg>
