<?xml version="1.0" encoding="UTF-8" standalone="no"?>
<!DOCTYPE svg PUBLIC "-//W3C//DTD SVG 1.1//EN"
 "http://www.w3.org/Graphics/SVG/1.1/DTD/svg11.dtd">
<!-- Generated by graphviz version 2.40.1 (20161225.0304)
 -->
<!-- Title: %3 Pages: 1 -->
<svg width="370pt" height="207pt"
 viewBox="0.00 0.00 370.00 207.00" xmlns="http://www.w3.org/2000/svg" xmlns:xlink="http://www.w3.org/1999/xlink">
<g id="graph0" class="graph" transform="scale(1 1) rotate(0) translate(4 203)">
<title>%3</title>
<polygon fill="#ffffff" stroke="transparent" points="-4,4 -4,-203 366,-203 366,4 -4,4"/>
<g id="clust1" class="cluster">
<title>clusterorigin</title>
<polygon fill="none" stroke="#000000" points="8,-116 8,-191 92,-191 92,-116 8,-116"/>
<text text-anchor="middle" x="50" y="-175.8" font-family="Times,serif" font-size="14.00" fill="#000000">origin</text>
</g>
<g id="clust2" class="cluster">
<title>clusterlocal</title>
<polygon fill="none" stroke="#000000" points="8,-8 8,-83 92,-83 92,-8 8,-8"/>
<text text-anchor="middle" x="50" y="-67.8" font-family="Times,serif" font-size="14.00" fill="#000000">local</text>
</g>
<g id="clust3" class="cluster">
<title>clusteralice</title>
<polygon fill="none" stroke="#000000" points="121,-116 121,-191 205,-191 205,-116 121,-116"/>
<text text-anchor="middle" x="163" y="-175.8" font-family="Times,serif" font-size="14.00" fill="#000000">alice</text>
</g>
<g id="clust4" class="cluster">
<title>clusterbob</title>
<polygon fill="none" stroke="#000000" points="256,-116 256,-191 340,-191 340,-116 256,-116"/>
<text text-anchor="middle" x="298" y="-175.8" font-family="Times,serif" font-size="14.00" fill="#000000">bob</text>
</g>
<!-- omaster -->
<g id="node1" class="node">
<title>omaster</title>
<path fill="#da70d6" stroke="#da70d6" d="M71.5,-160C71.5,-160 28.5,-160 28.5,-160 22.5,-160 16.5,-154 16.5,-148 16.5,-148 16.5,-136 16.5,-136 16.5,-130 22.5,-124 28.5,-124 28.5,-124 71.5,-124 71.5,-124 77.5,-124 83.5,-130 83.5,-136 83.5,-136 83.5,-148 83.5,-148 83.5,-154 77.5,-160 71.5,-160"/>
<text text-anchor="middle" x="50" y="-138.3" font-family="Times,serif" font-size="14.00" fill="#000000">master</text>
</g>
<!-- master -->
<g id="node2" class="node">
<title>master</title>
<path fill="#da70d6" stroke="#da70d6" d="M71.5,-52C71.5,-52 28.5,-52 28.5,-52 22.5,-52 16.5,-46 16.5,-40 16.5,-40 16.5,-28 16.5,-28 16.5,-22 22.5,-16 28.5,-16 28.5,-16 71.5,-16 71.5,-16 77.5,-16 83.5,-22 83.5,-28 83.5,-28 83.5,-40 83.5,-40 83.5,-46 77.5,-52 71.5,-52"/>
<text text-anchor="middle" x="50" y="-30.3" font-family="Times,serif" font-size="14.00" fill="#000000">master</text>
</g>
<!-- omaster&#45;&gt;master -->
<g id="edge1" class="edge">
<title>omaster&#45;&gt;master</title>
<path fill="none" stroke="#000000" d="M50,-123.6793C50,-106.821 50,-81.5651 50,-62.147"/>
<polygon fill="#000000" stroke="#000000" points="53.5001,-62.0501 50,-52.0502 46.5001,-62.0502 53.5001,-62.0501"/>
<text text-anchor="middle" x="76" y="-94.8" font-family="Times,serif" font-size="14.00" fill="#000000">git pull</text>
</g>
<!-- master&#45;&gt;omaster -->
<g id="edge2" class="edge">
<title>master&#45;&gt;omaster</title>
<path fill="none" stroke="#000000" d="M73.6815,-52.1404C84.851,-62.2168 97.0185,-75.783 103,-91 105.4389,-97.2045 106.1202,-100.1086 103,-106 100.1985,-111.2896 96.2328,-115.9462 91.7163,-120.002"/>
<polygon fill="#000000" stroke="#000000" points="89.426,-117.3499 83.7035,-126.2664 93.7374,-122.8646 89.426,-117.3499"/>
<text text-anchor="middle" x="135.5" y="-94.8" font-family="Times,serif" font-size="14.00" fill="#000000">git push</text>
</g>
<!-- amaster -->
<g id="node3" class="node">
<title>amaster</title>
<path fill="#32cd32" stroke="#32cd32" d="M184.5,-160C184.5,-160 141.5,-160 141.5,-160 135.5,-160 129.5,-154 129.5,-148 129.5,-148 129.5,-136 129.5,-136 129.5,-130 135.5,-124 141.5,-124 141.5,-124 184.5,-124 184.5,-124 190.5,-124 196.5,-130 196.5,-136 196.5,-136 196.5,-148 196.5,-148 196.5,-154 190.5,-160 184.5,-160"/>
<text text-anchor="middle" x="163" y="-138.3" font-family="Times,serif" font-size="14.00" fill="#000000">master</text>
</g>
<!-- amaster&#45;&gt;master -->
<g id="edge3" class="edge">
<title>amaster&#45;&gt;master</title>
<path fill="none" stroke="#000000" d="M170.5611,-123.742C173.5814,-113.406 175.0814,-100.656 169,-91 152.5461,-64.8747 120.4321,-50.4589 93.7086,-42.6644"/>
<polygon fill="#000000" stroke="#000000" points="94.3404,-39.21 83.7744,-39.9907 92.5211,-45.9694 94.3404,-39.21"/>
<text text-anchor="middle" x="218" y="-94.8" font-family="Times,serif" font-size="14.00" fill="#000000">git pull alice</text>
</g>
<!-- bmaster -->
<g id="node4" class="node">
<title>bmaster</title>
<path fill="#87cefa" stroke="#87cefa" d="M319.5,-160C319.5,-160 276.5,-160 276.5,-160 270.5,-160 264.5,-154 264.5,-148 264.5,-148 264.5,-136 264.5,-136 264.5,-130 270.5,-124 276.5,-124 276.5,-124 319.5,-124 319.5,-124 325.5,-124 331.5,-130 331.5,-136 331.5,-136 331.5,-148 331.5,-148 331.5,-154 325.5,-160 319.5,-160"/>
<text text-anchor="middle" x="298" y="-138.3" font-family="Times,serif" font-size="14.00" fill="#000000">master</text>
</g>
<!-- bmaster&#45;&gt;master -->
<g id="edge4" class="edge">
<title>bmaster&#45;&gt;master</title>
<path fill="none" stroke="#000000" d="M291.1726,-123.9468C286.1023,-112.8844 278.1305,-99.3001 267,-91 239.7353,-70.6685 148.6911,-51.5514 93.5691,-41.4529"/>
<polygon fill="#000000" stroke="#000000" points="94.181,-38.0068 83.7181,-39.6739 92.9369,-44.8954 94.181,-38.0068"/>
<text text-anchor="middle" x="321" y="-94.8" font-family="Times,serif" font-size="14.00" fill="#000000">git pull bob</text>
</g>
</g>
</svg>
