<?xml version="1.0" encoding="UTF-8" standalone="no"?>
<!DOCTYPE svg PUBLIC "-//W3C//DTD SVG 1.1//EN"
 "http://www.w3.org/Graphics/SVG/1.1/DTD/svg11.dtd">
<!-- Generated by graphviz version 2.40.1 (20161225.0304)
 -->
<!-- Title: %3 Pages: 1 -->
<svg width="401pt" height="207pt"
 viewBox="0.00 0.00 401.00 207.00" xmlns="http://www.w3.org/2000/svg" xmlns:xlink="http://www.w3.org/1999/xlink">
<g id="graph0" class="graph" transform="scale(1 1) rotate(0) translate(4 203)">
<title>%3</title>
<polygon fill="#ffffff" stroke="transparent" points="-4,4 -4,-203 397,-203 397,4 -4,4"/>
<g id="clust1" class="cluster">
<title>clusterorigin</title>
<polygon fill="none" stroke="#000000" points="8,-116 8,-191 92,-191 92,-116 8,-116"/>
<text text-anchor="middle" x="50" y="-175.8" font-family="Times,serif" font-size="14.00" fill="#000000">origin</text>
</g>
<g id="clust2" class="cluster">
<title>clusterlocal</title>
<polygon fill="none" stroke="#000000" points="8,-8 8,-83 92,-83 92,-8 8,-8"/>
<text text-anchor="middle" x="50" y="-67.8" font-family="Times,serif" font-size="14.00" fill="#000000">local</text>
</g>
<g id="clust3" class="cluster">
<title>clusterupstream</title>
<polygon fill="none" stroke="#000000" points="261,-116 261,-191 346,-191 346,-116 261,-116"/>
<text text-anchor="middle" x="303.5" y="-175.8" font-family="Times,serif" font-size="14.00" fill="#000000">upstream</text>
</g>
<!-- omaster -->
<g id="node1" class="node">
<title>omaster</title>
<path fill="#da70d6" stroke="#da70d6" d="M71.5,-160C71.5,-160 28.5,-160 28.5,-160 22.5,-160 16.5,-154 16.5,-148 16.5,-148 16.5,-136 16.5,-136 16.5,-130 22.5,-124 28.5,-124 28.5,-124 71.5,-124 71.5,-124 77.5,-124 83.5,-130 83.5,-136 83.5,-136 83.5,-148 83.5,-148 83.5,-154 77.5,-160 71.5,-160"/>
<text text-anchor="middle" x="50" y="-138.3" font-family="Times,serif" font-size="14.00" fill="#000000">master</text>
</g>
<!-- master -->
<g id="node2" class="node">
<title>master</title>
<path fill="#da70d6" stroke="#da70d6" d="M71.5,-52C71.5,-52 28.5,-52 28.5,-52 22.5,-52 16.5,-46 16.5,-40 16.5,-40 16.5,-28 16.5,-28 16.5,-22 22.5,-16 28.5,-16 28.5,-16 71.5,-16 71.5,-16 77.5,-16 83.5,-22 83.5,-28 83.5,-28 83.5,-40 83.5,-40 83.5,-46 77.5,-52 71.5,-52"/>
<text text-anchor="middle" x="50" y="-30.3" font-family="Times,serif" font-size="14.00" fill="#000000">master</text>
</g>
<!-- omaster&#45;&gt;master -->
<g id="edge1" class="edge">
<title>omaster&#45;&gt;master</title>
<path fill="none" stroke="#000000" d="M50,-123.6793C50,-106.821 50,-81.5651 50,-62.147"/>
<polygon fill="#000000" stroke="#000000" points="53.5001,-62.0501 50,-52.0502 46.5001,-62.0502 53.5001,-62.0501"/>
<text text-anchor="middle" x="76" y="-94.8" font-family="Times,serif" font-size="14.00" fill="#000000">git pull</text>
</g>
<!-- umaster -->
<g id="node3" class="node">
<title>umaster</title>
<path fill="#32cd32" stroke="#32cd32" d="M325.5,-160C325.5,-160 282.5,-160 282.5,-160 276.5,-160 270.5,-154 270.5,-148 270.5,-148 270.5,-136 270.5,-136 270.5,-130 276.5,-124 282.5,-124 282.5,-124 325.5,-124 325.5,-124 331.5,-124 337.5,-130 337.5,-136 337.5,-136 337.5,-148 337.5,-148 337.5,-154 331.5,-160 325.5,-160"/>
<text text-anchor="middle" x="304" y="-138.3" font-family="Times,serif" font-size="14.00" fill="#000000">master</text>
</g>
<!-- omaster&#45;&gt;umaster -->
<g id="edge4" class="edge">
<title>omaster&#45;&gt;umaster</title>
<path fill="none" stroke="#000000" d="M83.7292,-142C129.0842,-142 209.8098,-142 259.9255,-142"/>
<polygon fill="#000000" stroke="#000000" points="260.1313,-145.5001 270.1313,-142 260.1312,-138.5001 260.1313,-145.5001"/>
<text text-anchor="middle" x="177" y="-163.8" font-family="Times,serif" font-size="14.00" fill="#000000">pull request (GitHub)</text>
<text text-anchor="middle" x="177" y="-148.8" font-family="Times,serif" font-size="14.00" fill="#000000">merge request (GitLab)</text>
</g>
<!-- master&#45;&gt;omaster -->
<g id="edge2" class="edge">
<title>master&#45;&gt;omaster</title>
<path fill="none" stroke="#000000" d="M79.4434,-52.083C98.1061,-65.9873 116.8513,-86.1241 106,-106 102.6138,-112.2024 97.6508,-117.4956 92.0574,-121.9601"/>
<polygon fill="#000000" stroke="#000000" points="89.7186,-119.3242 83.5214,-127.9175 93.7249,-125.0644 89.7186,-119.3242"/>
<text text-anchor="middle" x="138.5" y="-94.8" font-family="Times,serif" font-size="14.00" fill="#000000">git push</text>
</g>
<!-- umaster&#45;&gt;master -->
<g id="edge3" class="edge">
<title>umaster&#45;&gt;master</title>
<path fill="none" stroke="#000000" d="M270.2708,-127.6584C224.6312,-108.2526 143.1755,-73.6179 93.1346,-52.3407"/>
<polygon fill="#000000" stroke="#000000" points="94.441,-49.0929 83.8687,-48.4009 91.7019,-55.5348 94.441,-49.0929"/>
<text text-anchor="middle" x="303.5" y="-94.8" font-family="Times,serif" font-size="14.00" fill="#000000">git pull upstream master</text>
</g>
</g>
</svg>
