<?xml version="1.0" encoding="UTF-8" standalone="no"?>
<!DOCTYPE svg PUBLIC "-//W3C//DTD SVG 1.1//EN"
 "http://www.w3.org/Graphics/SVG/1.1/DTD/svg11.dtd">
<!-- Generated by graphviz version 12.1.1 (0)
 -->
<!-- Pages: 1 -->
<svg width="377pt" height="214pt"
 viewBox="0.00 0.00 376.87 213.75" xmlns="http://www.w3.org/2000/svg" xmlns:xlink="http://www.w3.org/1999/xlink">
<g id="graph0" class="graph" transform="scale(1 1) rotate(0) translate(4 209.75)">
<polygon fill="white" stroke="none" points="-4,4 -4,-209.75 372.87,-209.75 372.87,4 -4,4"/>
<g id="clust1" class="cluster">
<title>clusterorigin</title>
<polygon fill="none" stroke="black" points="8,-120.5 8,-197.75 78,-197.75 78,-120.5 8,-120.5"/>
<text text-anchor="middle" x="43" y="-180.45" font-family="Times,serif" font-size="14.00">origin</text>
</g>
<g id="clust2" class="cluster">
<title>clusterlocal</title>
<polygon fill="none" stroke="black" points="8,-8 8,-85.25 78,-85.25 78,-8 8,-8"/>
<text text-anchor="middle" x="43" y="-67.95" font-family="Times,serif" font-size="14.00">local</text>
</g>
<g id="clust3" class="cluster">
<title>clusterupstream</title>
<polygon fill="none" stroke="black" points="241,-120.5 241,-197.75 325,-197.75 325,-120.5 241,-120.5"/>
<text text-anchor="middle" x="283" y="-180.45" font-family="Times,serif" font-size="14.00">upstream</text>
</g>
<!-- omain -->
<g id="node1" class="node">
<title>omain</title>
<path fill="orchid" stroke="orchid" d="M58,-164.5C58,-164.5 28,-164.5 28,-164.5 22,-164.5 16,-158.5 16,-152.5 16,-152.5 16,-140.5 16,-140.5 16,-134.5 22,-128.5 28,-128.5 28,-128.5 58,-128.5 58,-128.5 64,-128.5 70,-134.5 70,-140.5 70,-140.5 70,-152.5 70,-152.5 70,-158.5 64,-164.5 58,-164.5"/>
<text text-anchor="middle" x="43" y="-141.82" font-family="Times,serif" font-size="14.00">main</text>
</g>
<!-- main -->
<g id="node2" class="node">
<title>main</title>
<path fill="orchid" stroke="orchid" d="M58,-52C58,-52 28,-52 28,-52 22,-52 16,-46 16,-40 16,-40 16,-28 16,-28 16,-22 22,-16 28,-16 28,-16 58,-16 58,-16 64,-16 70,-22 70,-28 70,-28 70,-40 70,-40 70,-46 64,-52 58,-52"/>
<text text-anchor="middle" x="43" y="-29.32" font-family="Times,serif" font-size="14.00">main</text>
</g>
<!-- omain&#45;&gt;main -->
<g id="edge1" class="edge">
<title>omain&#45;&gt;main</title>
<path fill="none" stroke="black" d="M43,-128.23C43,-110.96 43,-84.09 43,-63.62"/>
<polygon fill="black" stroke="black" points="46.5,-63.66 43,-53.66 39.5,-63.66 46.5,-63.66"/>
<text text-anchor="middle" x="68.5" y="-97.2" font-family="Times,serif" font-size="14.00">git pull</text>
</g>
<!-- umain -->
<g id="node3" class="node">
<title>umain</title>
<path fill="limegreen" stroke="limegreen" d="M298,-164.5C298,-164.5 268,-164.5 268,-164.5 262,-164.5 256,-158.5 256,-152.5 256,-152.5 256,-140.5 256,-140.5 256,-134.5 262,-128.5 268,-128.5 268,-128.5 298,-128.5 298,-128.5 304,-128.5 310,-134.5 310,-140.5 310,-140.5 310,-152.5 310,-152.5 310,-158.5 304,-164.5 298,-164.5"/>
<text text-anchor="middle" x="283" y="-141.82" font-family="Times,serif" font-size="14.00">main</text>
</g>
<!-- omain&#45;&gt;umain -->
<g id="edge4" class="edge">
<title>omain&#45;&gt;umain</title>
<path fill="none" stroke="black" d="M70.06,-146.5C112.65,-146.5 195.46,-146.5 244.32,-146.5"/>
<polygon fill="black" stroke="black" points="244.15,-150 254.15,-146.5 244.15,-143 244.15,-150"/>
<text text-anchor="middle" x="163" y="-170.7" font-family="Times,serif" font-size="14.00">pull request (GitHub)</text>
<text text-anchor="middle" x="163" y="-153.45" font-family="Times,serif" font-size="14.00">merge request (GitLab)</text>
</g>
<!-- main&#45;&gt;omain -->
<g id="edge2" class="edge">
<title>main&#45;&gt;omain</title>
<path fill="none" stroke="black" d="M66.42,-52.46C78.31,-62.83 91.58,-77.09 98,-93.25 100.83,-100.37 101.69,-103.78 98,-110.5 93.79,-118.17 87.1,-124.41 79.82,-129.37"/>
<polygon fill="black" stroke="black" points="78.51,-126.07 71.72,-134.21 82.1,-132.08 78.51,-126.07"/>
<text text-anchor="middle" x="129.71" y="-97.2" font-family="Times,serif" font-size="14.00">git push</text>
</g>
<!-- umain&#45;&gt;main -->
<g id="edge3" class="edge">
<title>umain&#45;&gt;main</title>
<path fill="none" stroke="black" d="M255.94,-133.04C213.08,-113.31 129.49,-74.82 80.76,-52.38"/>
<polygon fill="black" stroke="black" points="82.26,-49.22 71.71,-48.22 79.33,-55.58 82.26,-49.22"/>
<text text-anchor="middle" x="287.12" y="-97.2" font-family="Times,serif" font-size="14.00">git pull upstream main</text>
</g>
</g>
</svg>
