<?xml version="1.0" encoding="UTF-8" standalone="no"?>
<!DOCTYPE svg PUBLIC "-//W3C//DTD SVG 1.1//EN"
 "http://www.w3.org/Graphics/SVG/1.1/DTD/svg11.dtd">
<!-- Generated by graphviz version 12.1.1 (0)
 -->
<!-- Pages: 1 -->
<svg width="276pt" height="242pt"
 viewBox="0.00 0.00 276.46 242.00" xmlns="http://www.w3.org/2000/svg" xmlns:xlink="http://www.w3.org/1999/xlink">
<g id="graph0" class="graph" transform="scale(1 1) rotate(0) translate(4 238)">
<polygon fill="white" stroke="none" points="-4,4 -4,-238 272.46,-238 272.46,4 -4,4"/>
<!-- workdir -->
<g id="node1" class="node">
<title>workdir</title>
<path fill="lightskyblue" stroke="lightskyblue" d="M235.75,-234C235.75,-234 12,-234 12,-234 6,-234 0,-228 0,-222 0,-222 0,-203.5 0,-203.5 0,-197.5 6,-191.5 12,-191.5 12,-191.5 235.75,-191.5 235.75,-191.5 241.75,-191.5 247.75,-197.5 247.75,-203.5 247.75,-203.5 247.75,-222 247.75,-222 247.75,-228 241.75,-234 235.75,-234"/>
<text text-anchor="middle" x="123.88" y="-216.7" font-family="Times,serif" font-size="14.00">working directory</text>
<text text-anchor="middle" x="123.88" y="-199.45" font-family="Times,serif" font-size="14.00">(changes not staged for commit)</text>
</g>
<!-- stage -->
<g id="node2" class="node">
<title>stage</title>
<path fill="orchid" stroke="orchid" d="M215.12,-138.25C215.12,-138.25 32.62,-138.25 32.62,-138.25 26.62,-138.25 20.62,-132.25 20.62,-126.25 20.62,-126.25 20.62,-107.75 20.62,-107.75 20.62,-101.75 26.62,-95.75 32.62,-95.75 32.62,-95.75 215.12,-95.75 215.12,-95.75 221.12,-95.75 227.12,-101.75 227.12,-107.75 227.12,-107.75 227.12,-126.25 227.12,-126.25 227.12,-132.25 221.12,-138.25 215.12,-138.25"/>
<text text-anchor="middle" x="123.88" y="-120.95" font-family="Times,serif" font-size="14.00">staging area</text>
<text text-anchor="middle" x="123.88" y="-103.7" font-family="Times,serif" font-size="14.00">(changes to be committed)</text>
</g>
<!-- workdir&#45;&gt;stage -->
<g id="edge1" class="edge">
<title>workdir&#45;&gt;stage</title>
<path fill="none" stroke="black" d="M83.83,-191.06C77.81,-186.14 72.43,-180.3 68.88,-173.5 63.58,-163.37 67.73,-153.9 75.67,-145.76"/>
<polygon fill="black" stroke="black" points="77.45,-148.84 82.72,-139.65 72.87,-143.55 77.45,-148.84"/>
<text text-anchor="middle" x="113.88" y="-160.2" font-family="Times,serif" font-size="14.00">git stage file</text>
</g>
<!-- stage&#45;&gt;workdir -->
<g id="edge2" class="edge">
<title>stage&#45;&gt;workdir</title>
<path fill="none" stroke="black" d="M148.12,-138.59C156.92,-148.63 163.66,-161.18 158.88,-173.5 157.75,-176.39 156.3,-179.19 154.62,-181.88"/>
<polygon fill="black" stroke="black" points="151.85,-179.75 148.68,-189.86 157.46,-183.93 151.85,-179.75"/>
<text text-anchor="middle" x="214.46" y="-160.2" font-family="Times,serif" font-size="14.00">git unstage file</text>
</g>
<!-- repo -->
<g id="node3" class="node">
<title>repo</title>
<path fill="limegreen" stroke="limegreen" d="M181.38,-42.5C181.38,-42.5 66.38,-42.5 66.38,-42.5 60.38,-42.5 54.38,-36.5 54.38,-30.5 54.38,-30.5 54.38,-12 54.38,-12 54.38,-6 60.38,0 66.38,0 66.38,0 181.38,0 181.38,0 187.38,0 193.38,-6 193.38,-12 193.38,-12 193.38,-30.5 193.38,-30.5 193.38,-36.5 187.38,-42.5 181.38,-42.5"/>
<text text-anchor="middle" x="123.88" y="-25.2" font-family="Times,serif" font-size="14.00">repository</text>
<text text-anchor="middle" x="123.88" y="-7.95" font-family="Times,serif" font-size="14.00">(tracked content)</text>
</g>
<!-- stage&#45;&gt;repo -->
<g id="edge3" class="edge">
<title>stage&#45;&gt;repo</title>
<path fill="none" stroke="black" d="M123.88,-95.66C123.88,-83.58 123.88,-67.99 123.88,-54.3"/>
<polygon fill="black" stroke="black" points="127.38,-54.39 123.88,-44.39 120.38,-54.39 127.38,-54.39"/>
<text text-anchor="middle" x="162.5" y="-64.45" font-family="Times,serif" font-size="14.00">git commit</text>
</g>
</g>
</svg>
