<?xml version="1.0" encoding="UTF-8" standalone="no"?>
<!DOCTYPE svg PUBLIC "-//W3C//DTD SVG 1.1//EN"
 "http://www.w3.org/Graphics/SVG/1.1/DTD/svg11.dtd">
<!-- Generated by graphviz version 2.40.1 (20161225.0304)
 -->
<!-- Title: %3 Pages: 1 -->
<svg width="278pt" height="224pt"
 viewBox="0.00 0.00 278.00 224.00" xmlns="http://www.w3.org/2000/svg" xmlns:xlink="http://www.w3.org/1999/xlink">
<g id="graph0" class="graph" transform="scale(1 1) rotate(0) translate(4 220)">
<title>%3</title>
<polygon fill="#ffffff" stroke="transparent" points="-4,4 -4,-220 274,-220 274,4 -4,4"/>
<!-- workdir -->
<g id="node1" class="node">
<title>workdir</title>
<path fill="#87cefa" stroke="#87cefa" d="M238,-216C238,-216 12,-216 12,-216 6,-216 0,-210 0,-204 0,-204 0,-190 0,-190 0,-184 6,-178 12,-178 12,-178 238,-178 238,-178 244,-178 250,-184 250,-190 250,-190 250,-204 250,-204 250,-210 244,-216 238,-216"/>
<text text-anchor="middle" x="125" y="-200.8" font-family="Times,serif" font-size="14.00" fill="#000000">working directory</text>
<text text-anchor="middle" x="125" y="-185.8" font-family="Times,serif" font-size="14.00" fill="#000000">(changes not staged for commit)</text>
</g>
<!-- stage -->
<g id="node2" class="node">
<title>stage</title>
<path fill="#da70d6" stroke="#da70d6" d="M217.5,-127C217.5,-127 32.5,-127 32.5,-127 26.5,-127 20.5,-121 20.5,-115 20.5,-115 20.5,-101 20.5,-101 20.5,-95 26.5,-89 32.5,-89 32.5,-89 217.5,-89 217.5,-89 223.5,-89 229.5,-95 229.5,-101 229.5,-101 229.5,-115 229.5,-115 229.5,-121 223.5,-127 217.5,-127"/>
<text text-anchor="middle" x="125" y="-111.8" font-family="Times,serif" font-size="14.00" fill="#000000">staging area</text>
<text text-anchor="middle" x="125" y="-96.8" font-family="Times,serif" font-size="14.00" fill="#000000">(changes to be committed)</text>
</g>
<!-- workdir&#45;&gt;stage -->
<g id="edge1" class="edge">
<title>workdir&#45;&gt;stage</title>
<path fill="none" stroke="#000000" d="M85.1082,-177.95C78.6323,-173.033 72.8085,-167.0811 69,-160 63.7554,-150.2489 67.8812,-141.3293 75.8255,-133.7354"/>
<polygon fill="#000000" stroke="#000000" points="78.426,-136.1362 84.0355,-127.1482 74.0453,-130.6764 78.426,-136.1362"/>
<text text-anchor="middle" x="114.5" y="-148.8" font-family="Times,serif" font-size="14.00" fill="#000000">git stage file</text>
</g>
<!-- stage&#45;&gt;workdir -->
<g id="edge2" class="edge">
<title>stage&#45;&gt;workdir</title>
<path fill="none" stroke="#000000" d="M149.1423,-127.1226C157.9198,-136.4952 164.6684,-148.2715 160,-160 158.6102,-163.4915 156.7173,-166.8435 154.5265,-170.0061"/>
<polygon fill="#000000" stroke="#000000" points="151.7159,-167.916 148.1729,-177.9008 157.1693,-172.3048 151.7159,-167.916"/>
<text text-anchor="middle" x="215.5" y="-148.8" font-family="Times,serif" font-size="14.00" fill="#000000">git unstage file</text>
</g>
<!-- repo -->
<g id="node3" class="node">
<title>repo</title>
<path fill="#32cd32" stroke="#32cd32" d="M184,-38C184,-38 66,-38 66,-38 60,-38 54,-32 54,-26 54,-26 54,-12 54,-12 54,-6 60,0 66,0 66,0 184,0 184,0 190,0 196,-6 196,-12 196,-12 196,-26 196,-26 196,-32 190,-38 184,-38"/>
<text text-anchor="middle" x="125" y="-22.8" font-family="Times,serif" font-size="14.00" fill="#000000">repository</text>
<text text-anchor="middle" x="125" y="-7.8" font-family="Times,serif" font-size="14.00" fill="#000000">(tracked content)</text>
</g>
<!-- stage&#45;&gt;repo -->
<g id="edge3" class="edge">
<title>stage&#45;&gt;repo</title>
<path fill="none" stroke="#000000" d="M125,-88.6883C125,-76.909 125,-61.6187 125,-48.3628"/>
<polygon fill="#000000" stroke="#000000" points="128.5001,-48.274 125,-38.274 121.5001,-48.274 128.5001,-48.274"/>
<text text-anchor="middle" x="164.5" y="-59.8" font-family="Times,serif" font-size="14.00" fill="#000000">git commit</text>
</g>
</g>
</svg>
